HIERARCHY
ROOT Hips
{
  OFFSET 0 0 0
  CHANNELS 6 Xposition Yposition Zposition Zrotation Xrotation Yrotation
  JOINT Spine
  {
    OFFSET 0 10.1816 0.131521
    CHANNELS 3 Zrotation Xrotation Yrotation
    JOINT Spine1
    {
      OFFSET 0 10.0835 -1.0008
      CHANNELS 3 Zrotation Xrotation Yrotation
      JOINT Spine2
      {
        OFFSET 0 9.10001 -1.37342
        CHANNELS 3 Zrotation Xrotation Yrotation
        JOINT Neck
        {
          OFFSET 0 16.6717 -2.51617
          CHANNELS 3 Zrotation Xrotation Yrotation
          JOINT Head
          {
            OFFSET 0 9.61788 1.68501
            CHANNELS 3 Zrotation Xrotation Yrotation
            End Site
            {
              OFFSET 0 0 0
            }
          }
        }
        JOINT LeftShoulder
        {
          OFFSET 4.57045 10.946 -2.62799
          CHANNELS 3 Zrotation Xrotation Yrotation
          JOINT LeftArm
          {
            OFFSET 10.5924 -0.524583 -2.23212
            CHANNELS 3 Zrotation Xrotation Yrotation
            JOINT LeftForeArm
            {
              OFFSET 27.8415 -8.94286e-05 3.74589e-05
              CHANNELS 3 Zrotation Xrotation Yrotation
              JOINT LeftHand
              {
                OFFSET 28.3288 -1.74407e-05 3.78045e-05
                CHANNELS 3 Zrotation Xrotation Yrotation
                End Site
                {
                  OFFSET 0 0 0
                }
              }
            }
          }
        }
        JOINT RightShoulder
        {
          OFFSET -4.56997 10.9462 -2.62802
          CHANNELS 3 Zrotation Xrotation Yrotation
          JOINT RightArm
          {
            OFFSET -10.5928 -0.524798 -2.2321
            CHANNELS 3 Zrotation Xrotation Yrotation
            JOINT RightForeArm
            {
              OFFSET -27.8415 -3.30792e-05 1.16763e-05
              CHANNELS 3 Zrotation Xrotation Yrotation
              JOINT RightHand
              {
                OFFSET -28.3288 0 5.5816e-05
                CHANNELS 3 Zrotation Xrotation Yrotation
                End Site
                {
                  OFFSET 0 0 0
                }
              }
            }
          }
        }
      }
    }
  }
  JOINT LeftUpLeg
  {
    OFFSET 8.20778 -6.75171 -1.59956
    CHANNELS 3 Zrotation Xrotation Yrotation
    JOINT LeftLeg
    {
      OFFSET 0 -44.3705 0.284643
      CHANNELS 3 Zrotation Xrotation Yrotation
      JOINT LeftFoot
      {
        OFFSET 0 -44.4279 -2.98219
        CHANNELS 3 Zrotation Xrotation Yrotation
        JOINT LeftToeBase
        {
          OFFSET 0 -8.72867 10.7106
          CHANNELS 3 Zrotation Xrotation Yrotation
          End Site
          {
            OFFSET 0 0 0
          }
        }
      }
    }
  }
  JOINT RightUpLeg
  {
    OFFSET -8.2078 -6.75166 -1.59956
    CHANNELS 3 Zrotation Xrotation Yrotation
    JOINT RightLeg
    {
      OFFSET 0 -44.3705 0.286156
      CHANNELS 3 Zrotation Xrotation Yrotation
      JOINT RightFoot
      {
        OFFSET 0 -44.4277 -2.98379
        CHANNELS 3 Zrotation Xrotation Yrotation
        JOINT RightToeBase
        {
          OFFSET 0 -8.72867 10.7106
          CHANNELS 3 Zrotation Xrotation Yrotation
          End Site
          {
            OFFSET 0 0 0
          }
        }
      }
    }
  }
}
MOTION
Frames: 11
Frame Time:	0.0333333
 1.31312  102.759 -72.1386 0.570174  8.27004 -7.20354 -0.294777 -0.249779  0.727737 -0.586368 -0.503277    1.4542 -0.586368 -0.503279    1.4542 -10.5924 -15.1009 -3.36459  16.5585  24.3573 -4.39155   8.55971 -0.638656 -0.923403  -83.7432   4.00953 -0.547911  11.0604 -1.59022 -17.3089 -0.395433   7.52228  -1.12581 -1.58716 -1.86359  0.39487  78.3308  24.7763 -2.67352 -14.1411 -2.93072  18.6833 0.976546  18.7447 0.339989  2.44373 -12.5845 -1.21556 -0.626595    19.264  -1.47146 -2.68069 -14.2935  9.29741   1.41338 -0.985165  0.190784 0.781681 -11.6922  17.8982 -0.851864   14.5172   2.17931 0.467071 -11.6361 -11.8309  0.626869  0.554372 -0.798487 
 1.51064  102.197 -72.9083 0.911651  10.0484  -7.4076 -0.664964 -0.590572 -0.471266 -0.646898  0.648885   1.17852  -0.73812 -0.602381   2.34476 -10.0925 -16.1945 -3.62941  15.8346  22.2009 -2.30183  8.44938 0.206168 -1.72549  -84.1512   4.84057 -0.203815  10.9208 -2.04119 -16.6407 -0.105384    7.2639  -1.29887 -0.973708  -2.02849  0.838175  78.7159  24.6281 -2.81248 -14.9846 -2.83373  18.4298  2.20943  18.7171 -1.31316   1.03491  -16.5393 -0.495584  3.2601 22.2441 -4.2582 -3.55181 -11.8566  7.81139 0.113746    1.432  1.28484  1.44364 -14.8718  19.0526 -2.48065  16.5776   3.3968  1.59704 -11.9849 -11.0723  1.40698  3.08581 -2.67462 
 1.66179   101.68 -73.8282  1.61695   11.387 -7.57319  -1.23111 -0.316814 -0.773459 -1.17162  1.47525  1.12622  -0.886852 -0.0150635     2.5652 -10.0374 -16.4265 -3.43339  15.4639  20.1094 -1.59297  7.90735 0.482641 -1.64036   -84.047   5.99032 -0.292646  11.7049 -2.10855 -17.2429 -0.175519   6.65583  -1.12652   -0.642 -2.10492 0.837126   78.684  24.6927 -2.40319 -15.4331 -2.77739  18.4676  2.83984  18.1474 -1.81245  0.300127  -19.5015 0.0372179 3.94845 23.9753 -4.5235 -3.44838 -12.2845  6.90186 -0.199048   1.00898   1.78613  1.68676 -17.3263  19.4336 -3.47618  17.8034  3.69021  1.59186 -13.1657 -11.2313  1.81723  3.28158 -3.68161 
 1.82376  101.377 -74.5628  1.94618  12.3996 -7.43763  -1.48326 -0.359635 -0.662957 -1.46358  2.04872 0.947733 -1.04698 0.590798  2.54892 -10.0262 -16.5169 -3.27238    15.62  18.4545 -1.39836  7.73753 0.164909 -1.50483  -83.7993   7.36459 -0.391809  12.5356 -2.16781 -18.3033 -0.143707   5.93852  -1.02923 -0.640263  -2.21911  0.837426  78.1103  24.7442 -1.73823 -15.4973 -2.64363  18.6965  3.00815   17.748 -1.83412 0.202887 -21.8257 0.839687    4.062  25.2733 -4.57081 -3.52252 -12.2333  5.76799 -0.140337  0.505172   2.07693  1.83714 -19.8037  19.8426 -3.6144 19.8199 3.73479  2.07056 -14.0399 -11.3481  2.35179  3.39773 -4.03154 
 2.05692  100.876 -75.3032  2.18458  13.2836 -7.29436    -1.6167 0.00442029  -0.514308 -1.67318  2.40104 0.927616 -1.05377 0.823591  2.56806 -9.74943 -16.3174 -2.99312 15.3075 16.0593 -1.2933   7.65945 -0.271247  -1.57053 -83.1652  8.71823 -1.07872  13.5912 -2.33078 -19.4444 -0.286353   4.90448 -0.795549 -1.03876 -2.56427 0.990525   77.4886    25.299 -0.623455 -16.0109 -2.65262   19.201  2.96412  17.1267 -1.72035 0.0510816  -23.9499   1.82669  4.16278  26.4778 -4.61484 -3.50782 -12.7859  5.06074 -0.305669 -0.220836   2.61222  2.25558 -22.5958  20.3312 -3.82732  22.8275  3.81224   2.2982 -15.0139 -11.9198  3.02826  3.04162 -4.41382 
 2.38314  100.557 -75.8927  3.08816  14.2641 -7.40999  -2.13979 -0.410622 -0.646081 -2.01963  2.79883 0.710732 -1.08485  1.41793  2.81015 -9.52724 -16.7937 -2.92295   15.218  12.8787 -1.15519  7.80783 -0.39763 -1.64766 -82.5976  10.2602 -1.06327  13.8659 -2.59352 -20.0435 -0.233052   3.99783   -0.8078 -0.798133  -2.62768   1.15389  76.8147  25.9666 0.214531 -15.7999 -2.76123  19.6694  3.27501  16.3057 -1.95287 -0.736038  -27.0615   2.93189  4.41743  29.2316 -4.73385 -3.29659 -12.4709  4.20692  -0.41905 -0.203873   2.67749  1.97132 -25.2609  20.8543 -4.0079 25.2786 3.88586  1.41888 -15.6233 -12.1045  4.04522   3.6575 -5.08112 
 2.87997   99.845 -76.8966  3.25245  14.6466 -7.47215  -1.63562   1.14746 -0.492692 -2.1376 3.57524 0.77407 -1.02413  1.41633  2.53726 -9.13947 -15.8366 -2.69792  15.0575   10.948 -1.11961  7.38991 -1.19146  -2.0555 -81.8979  11.6368 -2.13616  14.5029 -2.59772 -20.7636 -0.339364    3.2245 -0.635136 -1.48857 -3.20532  1.46801 75.9309 25.7052 1.79712 -16.6405 -2.77722  20.1976   3.1197  16.2795 -1.72339 -0.423189  -29.2415   3.69764  4.02728  29.3058 -4.54241 -3.33227 -13.8708  3.56149 -0.558582 -0.745095   3.47927  2.36194 -27.9591  21.2094 -4.2777  28.755 4.11265  1.67657 -16.7712 -13.1081  4.36711  2.93571 -5.57681 
 3.43313   99.424 -77.4557  3.84039  15.5145 -7.38802  -1.55857  0.892096 -0.821492 -2.24702   4.3089   0.4805 -1.09008   2.2103  2.38585 -8.88628 -16.2758 -2.83204  14.7774  9.25607 -1.03244  7.48244 -1.18791  -1.9478 -81.3634  13.3064 -2.45729  14.2886 -2.85584  -20.962 -0.299197   2.86785 -0.752939 -0.976739   -3.0851   1.69093 74.7102 26.1304 2.71623 -16.5687 -3.19409    20.83  3.02526  15.1942 -1.64534 -1.00515 -31.8218    4.349  4.37958   31.257 -4.71788   -3.652 -13.1565  2.35563 -0.155953 -0.148022   3.61228  1.95259 -30.3532   21.129 -4.44051  30.8216  4.19366  1.43427 -17.0074 -12.9542  5.18324  3.99213 -5.99113 
 4.00332  98.8828 -78.1772  4.03448   16.217 -7.23928   -1.1622   1.54923 -0.878062 -2.17046  4.81917  0.37563 -0.856185   2.58039   2.22832 -8.60023 -15.9303 -2.67821   14.5504   7.64295 -0.870841  7.11627 -1.26327 -2.01913 -80.6614  14.3725 -3.31828  14.4879 -2.71826 -20.8878 -0.276788   2.45445  -0.75558 -1.24107  -3.1302  1.63122 74.1091 25.7162 3.55504 -16.8487 -3.33179  21.0755  3.01255  14.8227 -1.49526 -1.26438 -33.7007  4.66817  4.50053   32.541 -4.78183 -3.68039 -13.9045  1.19407 -0.0535132  -0.130598    4.03879  2.04379 -32.6519  21.3977 -4.64214  33.1098  4.41194  1.10075 -17.6133 -13.1194 5.58102 3.85287 -6.0183 
 4.51273  98.4419 -78.8584  4.38921  17.0359 -6.78096 -0.977195   1.83699 -0.973648 -1.99658  5.50982 0.272015 -0.883003   3.09462   2.02632 -8.49301 -15.8891 -2.74827   14.3199   6.52023 -0.911288  7.17151 -1.38626 -2.02066 -80.2721  15.5472 -3.81671  14.4445 -2.69357 -21.0702 -0.154666   2.02878 -0.788642 -1.07248 -3.07848  1.73783 73.3794 25.5216 4.05621 -16.8225 -3.43091  21.3639  2.93529  14.0867 -1.50225  -1.8767 -35.8918  4.70789  4.65227  34.0442 -4.86514 -3.80499 -14.0653 0.233027  0.298828 0.0500355    4.2578  1.66226 -34.8161  21.2081 -4.80556  34.8482  4.50329  1.11962 -17.9484 -13.0245 6.01817 4.29023 -6.0492 
 4.92367  98.0397 -79.4638  4.51674  17.6228 -6.20368 -0.634076   2.43366 -0.962054 -1.88676  6.02064 0.229459 -0.729457   3.47946   1.84593 -8.3979 -15.614 -2.7052 14.3027 5.62487 -1.0024  7.03003 -1.54371 -1.97342 -79.7835  16.2522 -4.07556  14.4096 -2.57825 -21.0273 -0.0587554    1.32788  -0.799474  -1.0688 -3.02275  1.68527 73.1303 24.8819 4.15944 -16.7748  -3.4425  21.4289  2.87704  13.4448 -1.42484 -2.39585 -37.4939  4.46651 4.76302 35.1086  -4.928  -3.74983  -14.4644 -0.495241 0.418221 0.415707  4.40239  1.56795 -36.4852  21.2904 -4.95881  36.4142  4.59258 0.785784 -18.6319 -12.8982 6.00602 4.17584 -6.0483 
